PathFileType	4	(X/Y/Z)	C:/Users/opensim2020/Desktop/walking_exp_matlab/subject02_walking06_static.trc																																																																																																																									
DataRate	CameraRate	NumFrames	NumMarkers	Units	OrigDataRate	OrigDataStartFrame	OrigNumFrames																																																																																																																					
100	100	8	41	mm	100	180	287																																																																																																																					
Frame#	Time	LFHD			RFHD			LBHD			RBHD			C7			T10			CLAV			STRN			RBAK			LSHO			LUPA			LELB			LFRM			LWRA			LWRB			LFIN			RSHO			RUPA			RELB			RFRM			RWRA			RWRB			RFIN			LASI			RASI			LPSI			RPSI			LTHI			LKNE			LTIB			LANK			LHEE			LTOE			RTHI			RKNE			RTIB			RANK			RHEE			RTOE			*39			*40		
		X1	Y1	Z1	X2	Y2	Z2	X3	Y3	Z3	X4	Y4	Z4	X5	Y5	Z5	X6	Y6	Z6	X7	Y7	Z7	X8	Y8	Z8	X9	Y9	Z9	X10	Y10	Z10	X11	Y11	Z11	X12	Y12	Z12	X13	Y13	Z13	X14	Y14	Z14	X15	Y15	Z15	X16	Y16	Z16	X17	Y17	Z17	X18	Y18	Z18	X19	Y19	Z19	X20	Y20	Z20	X21	Y21	Z21	X22	Y22	Z22	X23	Y23	Z23	X24	Y24	Z24	X25	Y25	Z25	X26	Y26	Z26	X27	Y27	Z27	X28	Y28	Z28	X29	Y29	Z29	X30	Y30	Z30	X31	Y31	Z31	X32	Y32	Z32	X33	Y33	Z33	X34	Y34	Z34	X35	Y35	Z35	X36	Y36	Z36	X37	Y37	Z37	X38	Y38	Z38	X39	Y39	Z39	X40	Y40	Z40	X41	Y41	Z41
																																																																																																																												
180	1.79	19.52434	1751.80627	-691.89575	7.12525	1731.99939	-550.1239	-102.79328	1665.83765	-714.04041	-127.59279	1643.57983	-574.21436	-151.32648	1522.43457	-641.07642	-190.92726	1247.98633	-639.49084	-0.83683	1472.87964	-649.45459	63.83199	1305.05151	-639.10327	-190.3503	1350.11816	-569.20361	-57.41381	1515.49414	-816.5072	-50.99594	1333.34875	-926.54742	-54.81145	1192.4425	-956.96075	-30.83895	1058.40698	-963.71783	23.8439	940.47314	-912.86169	-11.67982	937.07642	-956.96277	15.35566	876.66229	-953.13531	-56.00741	1508.93518	-458.72824	-56.75041	1335.08728	-347.09427	-33.31927	1188.84546	-317.78867	6.64948	1071.51868	-310.96039	50.64468	947.97266	-347.57251	20.16765	941.34186	-301.24939	60.93069	883.17651	-312.90231	41.39954	993.86536	-759.20209	31.19695	985.5802	-508.60324	-170.6613	1028.5365	-691.30817	-179.96106	1029.68225	-576.44141	-33.89249	686.05286	-839.32666	-68.56546	484.16452	-828.58118	-124.92341	299.70105	-852.40033	-116.13811	72.50375	-847.29236	-151.60208	40.94986	-801.28778	42.86146	30.99463	-860.32446	-57.78543	682.75006	-416.00906	-58.49518	471.43817	-432.42032	-110.85952	292.10391	-404.65924	-133.79169	97.02458	-415.43808	-166.66885	37.51602	-465.26468	15.37929	38.00208	-379.77762	-96.53093	1807.76392	-612.88947	3357.25317	1033.98865	2845.78955
181	1.8	19.55836	1751.77319	-692.0918	7.2757	1732.04138	-550.28784	-102.7797	1665.81641	-714.11432	-127.53372	1643.62146	-574.26398	-151.29382	1522.41956	-641.12299	-190.88487	1247.97522	-639.50415	-0.81496	1472.85596	-649.51807	63.83778	1305.05237	-639.15259	-190.22725	1350.14587	-569.14777	-57.41726	1515.43567	-816.58282	-51.04712	1333.25037	-926.5697	-54.83266	1192.31592	-956.94763	-30.8359	1058.27869	-963.67285	24.13561	940.38275	-912.73969	-11.60602	936.93372	-956.80127	15.44231	876.56531	-953.0365	-55.98394	1508.92151	-458.79691	-56.89961	1335.23181	-347.0162	-33.36535	1188.90063	-317.8631	6.51203	1071.75256	-310.83093	50.54605	947.94891	-347.48276	20.11559	941.38489	-301.18686	60.83657	883.17755	-312.80725	41.41284	993.87573	-759.18542	31.19086	985.58813	-508.58817	-170.64667	1028.51831	-691.29834	-179.92406	1029.67151	-576.43341	-33.84012	686.03027	-839.27533	-68.53123	484.14987	-828.58661	-124.90461	299.6962	-852.39343	-116.12315	72.49509	-847.28058	-151.58748	40.89174	-801.24542	42.85434	30.99082	-860.32788	-57.12387	682.84662	-416.25815	-58.47581	471.4317	-432.39117	-110.87918	292.10522	-404.6528	-133.81618	97.05326	-415.42554	-166.45735	37.4567	-465.31784	15.38711	37.97541	-379.77301	-96.43463	1807.75903	-613.04144	3360.06226	1033.7793	2845.03833
182	1.81	19.61688	1751.70105	-692.36127	7.38754	1732.04163	-550.47217	-102.75362	1665.79175	-714.19208	-127.44574	1643.63818	-574.33899	-151.25342	1522.42847	-641.11951	-190.8546	1247.9696	-639.50909	-0.80314	1472.85571	-649.60663	63.86237	1305.02844	-639.20886	-190.22585	1350.16394	-569.18341	-57.45981	1515.31213	-816.64252	-51.11831	1333.11462	-926.50806	-54.86546	1192.19128	-956.9292	-30.82541	1058.17908	-963.63379	24.1842	940.26208	-912.47803	-11.67086	936.89581	-956.70752	15.57422	876.46338	-952.9679	-55.9203	1508.93933	-458.87119	-56.98814	1335.13367	-347.04324	-33.38936	1188.94519	-317.88339	6.47625	1071.76794	-310.82901	50.54095	947.98926	-347.43292	19.8259	941.51544	-300.72958	60.75135	883.19458	-312.70758	41.42001	993.88116	-759.14777	31.20298	985.62512	-508.55325	-170.63286	1028.52466	-691.29797	-179.89812	1029.66284	-576.37341	-33.80367	686.02557	-839.24097	-68.49976	484.13919	-828.51752	-124.86878	299.69211	-852.36615	-116.11954	72.51373	-847.27313	-151.59177	40.94463	-801.26611	42.87483	30.99133	-860.2995	-57.3372	682.87085	-415.81671	-58.4379	471.43344	-432.33881	-110.84814	292.09875	-404.63153	-133.79979	97.05637	-415.42346	-166.51086	37.43978	-465.28671	15.37799	37.99682	-379.77036	-96.3615	1807.75903	-613.18158	3357.25513	1034.07153	2845.73853
183	1.82	19.63966	1751.67261	-692.4082	7.48784	1732.05579	-550.62994	-102.73907	1665.77161	-714.29315	-127.32304	1643.65454	-574.37897	-151.21394	1522.41968	-641.2002	-190.81009	1247.96838	-639.49402	-0.79415	1472.84778	-649.69965	63.8741	1304.99207	-639.25549	-190.21692	1350.11414	-569.245	-57.4963	1515.30725	-816.75317	-51.05875	1333.00049	-926.7215	-54.89169	1192.07288	-956.92401	-30.8415	1058.0481	-963.58478	24.28484	940.26178	-912.56793	-11.54889	936.82104	-956.80261	15.64415	876.43066	-952.92029	-55.84726	1508.9635	-458.95453	-57.17979	1335.31335	-346.85266	-33.3882	1188.95508	-317.89853	6.42501	1071.80273	-310.81741	50.44227	947.95142	-347.3656	19.94394	941.44525	-301.05444	60.63281	883.17651	-312.63794	41.42555	993.88739	-759.12244	31.25006	985.64325	-508.51758	-170.60579	1028.50415	-691.2431	-179.86757	1029.65674	-576.35284	-33.77026	686.00763	-839.19965	-68.46869	484.14502	-828.4917	-124.79729	299.6431	-852.26239	-116.12171	72.46371	-847.22681	-151.61716	40.95875	-801.26782	42.85558	31.00869	-860.31714	-57.01347	682.74945	-416.22705	-58.40702	471.42609	-432.44257	-110.81885	292.09891	-404.59421	-133.81575	97.06423	-415.40967	-166.51833	37.41865	-465.28342	15.37095	37.99831	-379.77591	-96.26009	1807.76343	-613.2735	3360.12915	1033.87219	2844.98901
184	1.83	19.71135	1751.63342	-692.73157	7.60498	1732.04651	-550.79059	-102.69309	1665.72803	-714.38696	-127.24939	1643.69055	-574.43951	-151.15829	1522.42578	-641.2439	-190.77315	1247.96753	-639.51447	-0.7467	1472.81604	-649.78278	63.91181	1304.95288	-639.31122	-190.11627	1350.14124	-569.19623	-57.54089	1515.16431	-816.79504	-51.19293	1332.90356	-926.57446	-54.92518	1191.95691	-956.90826	-30.85607	1057.9043	-963.52411	24.19003	940.17322	-912.60901	-11.52193	936.71985	-956.79218	15.70725	876.33453	-952.88757	-55.79132	1508.97583	-459.07413	-56.92516	1335.29565	-347.19617	-33.37799	1188.98682	-317.95035	6.42347	1071.83313	-310.80588	50.35826	947.94092	-347.33585	19.69553	941.55139	-300.65472	60.57541	883.21582	-312.60626	41.43311	993.86987	-759.08655	31.25458	985.68475	-508.51608	-170.59282	1028.48047	-691.20868	-179.83099	1029.6261	-576.30963	-33.72578	686.02838	-839.17413	-68.41496	484.12158	-828.47241	-124.77518	299.6369	-852.25049	-116.1394	72.48963	-847.27246	-151.61189	40.95474	-801.30396	42.86758	30.98656	-860.31073	-57.5739	682.74548	-415.86154	-58.42332	471.39392	-432.30161	-110.80025	292.0968	-404.58185	-133.78944	97.0566	-415.40427	-166.71153	37.55892	-465.22095	15.38123	37.98772	-379.77783	-96.18605	1807.75171	-613.4046	3360.3064	1033.77527	2845.05444
185	1.84	19.75051	1751.59595	-692.88928	7.7388	1732.04688	-550.9657	-102.69211	1665.69031	-714.48254	-127.19815	1643.71094	-574.526	-151.12186	1522.40186	-641.30304	-190.73125	1247.92957	-639.51831	-0.71144	1472.80273	-649.86176	63.95379	1304.93555	-639.36548	-190.04153	1350.14075	-569.2583	-57.57158	1515.08545	-816.88177	-51.20913	1332.76172	-926.59338	-54.94104	1191.8302	-956.88391	-30.85414	1057.77039	-963.47388	24.23091	940.08197	-912.53058	-11.48955	936.591	-956.70837	15.79738	876.24017	-952.84973	-55.68581	1508.96289	-459.11322	-57.12311	1335.36658	-346.95203	-33.37162	1189.03101	-317.96817	6.33073	1071.82947	-310.83203	50.34998	947.95264	-347.31522	19.63148	941.58368	-300.5881	60.46158	883.1969	-312.57941	41.44918	993.86597	-759.06781	31.27494	985.69897	-508.46838	-170.56207	1028.4502	-691.16736	-179.81732	1029.60266	-576.26575	-33.72777	686.00073	-839.14673	-68.37717	484.12042	-828.46979	-124.79541	299.64597	-852.30188	-116.10484	72.47861	-847.25909	-151.61525	40.94748	-801.27759	42.86741	30.98639	-860.30731	-57.53533	682.70538	-415.83829	-58.38051	471.38815	-432.2775	-110.79382	292.07465	-404.5675	-133.81891	97.04485	-415.40341	-166.49532	37.40765	-465.27612	15.37326	38.00061	-379.7908	-96.11897	1807.72229	-613.58789	3360.17969	1033.89453	2845.06006
186	1.85	19.80301	1751.60413	-693.05365	7.82185	1732.06152	-551.10498	-102.67661	1665.70166	-714.56268	-127.49578	1643.68823	-574.48883	-151.07893	1522.37964	-641.36261	-190.66081	1247.91602	-639.48059	-0.68113	1472.80298	-649.94458	64.0034	1304.9397	-639.42218	-190.07111	1350.10535	-569.3147	-57.58773	1515.07971	-817.00873	-51.24216	1332.62915	-926.57611	-54.96145	1191.70435	-956.87079	-30.85436	1057.67944	-963.40985	24.26199	940.01965	-912.46405	-11.45161	936.50775	-956.6405	15.79779	876.13464	-952.68744	-55.59966	1508.9884	-459.18018	-56.82142	1335.37476	-347.32083	-33.34702	1189.07153	-317.9624	6.29874	1071.85413	-310.82251	50.2984	947.98779	-347.25061	19.71399	941.49011	-300.89996	60.36915	883.19257	-312.57611	41.457	993.87402	-759.04883	31.31486	985.7168	-508.43399	-170.55417	1028.42456	-691.09497	-179.76961	1029.59827	-576.25006	-33.69715	686.0072	-839.10895	-68.35562	484.11987	-828.43121	-124.74644	299.64008	-852.24713	-116.12234	72.50099	-847.27045	-151.60759	40.95164	-801.26813	42.86142	30.98135	-860.31207	-57.30977	682.52136	-416.27423	-58.33081	471.37427	-432.25262	-110.72333	292.05768	-404.54382	-133.81049	97.02689	-415.39893	-166.70857	37.63182	-465.29852	15.3684	38.01752	-379.78769	-96.01852	1807.72644	-613.69989	3360.25146	1033.86499	2845.12842
187	1.86	19.83629	1751.53528	-693.06775	7.89161	1732.07373	-551.25824	-102.63757	1665.69434	-714.67346	-127.49541	1643.7478	-574.60034	-151.02953	1522.37366	-641.43207	-190.63506	1247.93994	-639.4502	-0.62432	1472.80457	-650.02179	64.04294	1304.9364	-639.49658	-189.93336	1350.15833	-569.29291	-57.59811	1514.9292	-817.06445	-51.23217	1332.44055	-926.62213	-54.95937	1191.59009	-956.89935	-30.84157	1057.54346	-963.37354	24.33784	939.94379	-912.43317	-11.39724	936.37598	-956.49524	15.8047	876.0506	-952.6087	-55.55132	1509.01306	-459.24524	-56.82067	1335.33289	-347.27194	-33.39938	1189.08777	-317.99457	6.29631	1071.87292	-310.7886	50.25213	947.98938	-347.22812	19.49485	941.62476	-300.54327	60.31915	883.19238	-312.49551	41.4733	993.87347	-759.02368	31.32993	985.78284	-508.37891	-170.55363	1028.39136	-691.02423	-179.72516	1029.58264	-576.18726	-33.68744	686.01001	-839.08557	-68.31888	484.12314	-828.41309	-124.69489	299.61957	-852.20422	-116.11301	72.49997	-847.25134	-151.58792	40.9457	-801.28912	42.8641	31.00527	-860.32355	-57.46378	682.73254	-415.77597	-58.28604	471.3522	-432.23242	-110.69839	292.05597	-404.49045	-133.78085	97.06271	-415.38599	-166.51556	37.42688	-465.26718	15.37103	38.00657	-379.79202	-95.96696	1807.76074	-613.82892	3360.25073	1033.80896	2845.15674
